<?xml version="1.0" encoding="UTF-8" standalone="no"?>
<svg
   xmlns:dc="http://purl.org/dc/elements/1.1/"
   xmlns:cc="http://creativecommons.org/ns#"
   xmlns:rdf="http://www.w3.org/1999/02/22-rdf-syntax-ns#"
   xmlns:svg="http://www.w3.org/2000/svg"
   xmlns="http://www.w3.org/2000/svg"
   xmlns:sodipodi="http://sodipodi.sourceforge.net/DTD/sodipodi-0.dtd"
   xmlns:inkscape="http://www.inkscape.org/namespaces/inkscape"
   viewBox="0 0 228.66 39.08"
   version="1.1"
   id="svg3925"
   sodipodi:docname="new-logo.svg"
   inkscape:version="0.92.5 (0.92.5+68)">
  <metadata
     id="metadata3931">
    <rdf:RDF>
      <cc:Work
         rdf:about="">
        <dc:format>image/svg+xml</dc:format>
        <dc:type
           rdf:resource="http://purl.org/dc/dcmitype/StillImage" />
        <dc:title></dc:title>
      </cc:Work>
    </rdf:RDF>
  </metadata>
  <defs
     id="defs3929" />
  <sodipodi:namedview
     pagecolor="#ffffff"
     bordercolor="#666666"
     borderopacity="1"
     objecttolerance="10"
     gridtolerance="10"
     guidetolerance="10"
     inkscape:pageopacity="0"
     inkscape:pageshadow="2"
     inkscape:window-width="1920"
     inkscape:window-height="1026"
     id="namedview3927"
     showgrid="false"
     inkscape:zoom="2.1853071"
     inkscape:cx="417.31473"
     inkscape:cy="-85.335568"
     inkscape:window-x="0"
     inkscape:window-y="28"
     inkscape:window-maximized="1"
     inkscape:current-layer="svg3925"
     inkscape:lockguides="true" />
  <style
     id="style3895">.cls-1{fill:#fed136;}</style>
  <path
     d="m 26.299133,23.759135 c 4.152912,3.240677 10.772013,6.466031 18.1746,8.853801 7.445874,2.40176 15.129695,3.779393 21.083327,3.779393 5.4615,0 9.10397,-1.146584 10.2565,-3.228155 1.63313,-2.948735 -1.98297,-7.208744 -9.34768,-11.270351 12.28643,4.554084 20.43811,10.347089 18.65904,13.560185 -0.76637,1.384695 -3.46737,2.147396 -7.60474,2.147396 -2.72578,0 -6.05628,-0.335381 -9.63048,-0.969898 -0.19011,-0.03318 -0.37603,0.05436 -0.42526,0.195738 -0.0492,0.14244 0.059,0.288211 0.24423,0.329518 5.89462,1.319402 11.30777,2.016411 15.65394,2.016411 5.15897,0 8.4268,-0.977492 9.45102,-2.826414 C 95.05375,32.302605 85.62193,25.337967 70.38329,19.778675 66.27787,16.336796 59.403716,12.904911 51.507616,10.358445 44.062437,7.9566848 36.377743,6.5785208 30.424288,6.5785208 c -5.461509,0 -9.10397,1.146449 -10.256499,3.228552 -1.776453,3.2069662 2.630113,7.9236102 11.1552,12.2293232 -6.40333,-2.1887 -12.037666,-4.810183 -16.009196,-7.457648 -4.168276,-2.778714 -6.0323629,-5.3233132 -5.11411,-6.9804952 0.766548,-1.384693 3.46719,-2.14726 7.604739,-2.14726 2.725605,0 6.056104,0.33538 9.630132,0.969765 0.188888,0.03371 0.375332,-0.05436 0.425609,-0.195739 0.04906,-0.14244 -0.05936,-0.288078 -0.244402,-0.329517 -5.894624,-1.319403 -11.307602,-2.016946 -15.65394,-2.016946 -5.1581028,0 -8.4259298,0.977493 -9.4508468,2.826949 C 0.20835915,10.864381 10.432038,18.192114 26.299133,23.759135 Z m 4.260623,-7.494692 c -0.279316,0.505136 -0.37987,1.061172 -0.301487,1.662512 -1.776452,-1.824939 -2.375412,-3.478256 -1.684278,-4.724772 0.89102,-1.609879 3.841299,-2.497032 8.305474,-2.497032 5.089845,0 11.678217,1.183492 18.074216,3.247207 3.438731,1.10954 6.663969,2.415351 9.481569,3.833222 -9.027852,-2.772051 -17.847619,-4.347552 -24.423426,-4.347552 -5.159324,-0.0012 -8.427675,0.976294 -9.452068,2.826415 z M 64.7638,26.787685 c 0.42386,-0.7643 0.4387,-1.636929 0.0483,-2.604562 2.48574,2.168047 3.40451,4.121435 2.59328,5.586475 -0.89102,1.609745 -3.84113,2.496365 -8.305655,2.496365 -5.090539,0 -11.678215,-1.183492 -18.074214,-3.246674 -2.836059,-0.915533 -5.554855,-1.975639 -8.010221,-3.120489 8.274397,2.37631 16.258135,3.716366 22.29661,3.716366 5.15915,0 8.4275,-0.977893 9.45189,-2.827481 z"
     id="path3842"
     inkscape:connector-curvature="0"
     style="fill:#999999;stroke-width:0.15251601" />
  <text
     xml:space="preserve"
     style="font-style:normal;font-weight:normal;font-size:56.25415421px;line-height:1.25;font-family:sans-serif;letter-spacing:0px;word-spacing:0px;fill:#ffffff;fill-opacity:1;stroke:none;stroke-width:1.40635383;"
     x="48.986675"
     y="24.162256"
     id="text3959"
     transform="scale(0.88379157,1.1314885)"><tspan
       sodipodi:role="line"
       x="48.986675"
       y="24.162256"
       id="tspan3963"
       style="font-size:22.5016613px;fill:#ffffff;stroke-width:1.40635383;">Pizza das Galaxias</tspan></text>
  <path
     inkscape:connector-curvature="0"
     d="m 209.4802,31.615368 -2.51955,0.42141 -1.99995,-1.34038 c -0.31726,-0.21232 -0.61205,-0.1157 -0.65896,0.21603 l -0.29478,2.09284 -2.1738,1.11728 c -0.34727,0.17853 -0.32039,0.42498 0.0606,0.55078 l 2.4128,0.79599 0.58966,2.12333 c 0.0906,0.32582 0.39865,0.39786 0.68837,0.16082 l 1.77649,-1.45321 2.52022,0.0443 c 0.41066,0.007 0.55923,-0.21204 0.33147,-0.49001 l -1.50081,-1.8297 1.17492,-1.98634 c 0.17816,-0.30097 -0.004,-0.49042 -0.40668,-0.42313 z"
     id="path3846"
     style="stroke-width:0.07617985;fill:#999999" />
  <path
     inkscape:connector-curvature="0"
     d="m 195.87093,31.243878 -1.15244,0.19275 -0.91445,-0.61299 c -0.1452,-0.0972 -0.28,-0.0529 -0.30138,0.0989 l -0.13488,0.95708 -0.99415,0.51096 c -0.15854,0.0816 -0.14612,0.19446 0.028,0.25187 l 1.10342,0.36393 0.2696,0.9711 c 0.0414,0.14907 0.18238,0.18183 0.31482,0.0737 l 0.81243,-0.66457 1.15269,0.0202 c 0.18805,0.003 0.25583,-0.097 0.15137,-0.2242 l -0.68617,-0.83684 0.53726,-0.90833 c 0.0811,-0.13747 -0.002,-0.22441 -0.1861,-0.19351 z"
     id="path3848"
     style="stroke-width:0.07617985;fill:#999999" />
  <path
     inkscape:connector-curvature="0"
     d="m 206.50056,6.7260481 1.32104,-0.004 0.91335,0.77491 c 0.14908,0.12635 0.30391,0.0897 0.34634,-0.0818 l 0.27864,-1.12965 1.34099,-0.38213 c 0.20301,-0.058 0.22236,-0.18293 0.0424,-0.279 l -1.12556,-0.60207 -0.12957,-1.09854 c -0.0208,-0.17428 -0.17418,-0.22722 -0.34287,-0.11824 l -1.06336,0.68639 -1.31445,-0.24033 c -0.20994,-0.0384 -0.31245,0.0611 -0.22895,0.22214 l 0.531,1.02122 -0.74973,0.96408 c -0.1162,0.14784 -0.0346,0.26719 0.1807,0.26664 z"
     id="path3850"
     style="stroke-width:0.07617985;fill:#999999" />
  <path
     inkscape:connector-curvature="0"
     d="m 174.43241,21.112378 1.32096,-0.004 0.91343,0.77491 c 0.14891,0.12635 0.30374,0.0897 0.34617,-0.0818 l 0.27856,-1.12965 1.34099,-0.38241 c 0.20309,-0.058 0.22244,-0.18292 0.0424,-0.27899 l -1.12548,-0.60235 -0.12965,-1.09854 c -0.0207,-0.17427 -0.17418,-0.22722 -0.34279,-0.11824 l -1.06344,0.6864 -1.31445,-0.24034 c -0.20994,-0.0384 -0.31237,0.0611 -0.22895,0.22214 l 0.531,1.02122 -0.74964,0.96402 c -0.11604,0.14839 -0.0343,0.2678 0.18086,0.26725 z"
     id="path3852"
     style="stroke-width:0.07617985;fill:#999999" />
  <path
     inkscape:connector-curvature="0"
     d="m 115.73902,8.4543201 2.51955,0.42141 1.99995,-1.34038 c 0.31726,-0.21232 0.61205,-0.1157 0.65896,0.21603 l 0.29478,2.09284 2.1738,1.1172799 c 0.34727,0.17853 0.32039,0.42498 -0.0606,0.55078 l -2.4128,0.79599 -0.58966,2.12333 c -0.0906,0.32582 -0.39865,0.39786 -0.68837,0.16082 l -1.77649,-1.45321 -2.52022,0.0443 c -0.41066,0.007 -0.55923,-0.21204 -0.33147,-0.49001 l 1.50081,-1.8297 -1.17492,-1.9863399 c -0.17816,-0.30097 0.004,-0.49042 0.40668,-0.42313 z"
     id="path3846-5"
     style="fill:#999999;stroke-width:0.07617985" />
  <path
     inkscape:connector-curvature="0"
     d="m 117.45065,28.2173 1.15244,0.19275 0.91445,-0.61299 c 0.1452,-0.0972 0.28,-0.0529 0.30138,0.0989 l 0.13488,0.95708 0.99415,0.51096 c 0.15854,0.0816 0.14612,0.19446 -0.028,0.25187 l -1.10342,0.36393 -0.2696,0.9711 c -0.0414,0.14907 -0.18238,0.18183 -0.31482,0.0737 l -0.81243,-0.66457 -1.15269,0.0202 c -0.18805,0.003 -0.25583,-0.097 -0.15137,-0.2242 l 0.68617,-0.83684 -0.53726,-0.90833 c -0.0811,-0.13747 0.002,-0.22441 0.1861,-0.19351 z"
     id="path3848-2"
     style="fill:#999999;stroke-width:0.07617985" />
  <path
     inkscape:connector-curvature="0"
     d="m 101.7874,11.936298 -1.32104,-0.004 -0.913347,0.77491 c -0.14908,0.12635 -0.30391,0.0897 -0.34634,-0.0818 l -0.27864,-1.12965 -1.34099,-0.38213 c -0.20301,-0.058 -0.22236,-0.18293 -0.0424,-0.279 l 1.12556,-0.60207 0.12957,-1.0985397 c 0.0208,-0.17428 0.17418,-0.22722 0.34287,-0.11824 l 1.063357,0.68639 1.31445,-0.24033 c 0.20994,-0.0384 0.31245,0.0611 0.22895,0.22214 l -0.531,1.0212197 0.74973,0.96408 c 0.1162,0.14784 0.0346,0.26719 -0.1807,0.26664 z"
     id="path3850-4"
     style="fill:#999999;stroke-width:0.07617985" />
  <path
     inkscape:connector-curvature="0"
     d="m 138.88917,18.0858 -1.32096,-0.004 -0.91343,0.77491 c -0.14891,0.12635 -0.30374,0.0897 -0.34617,-0.0818 l -0.27856,-1.12965 -1.34099,-0.38241 c -0.20309,-0.058 -0.22244,-0.18292 -0.0424,-0.27899 l 1.12548,-0.60235 0.12965,-1.09854 c 0.0207,-0.17427 0.17418,-0.22722 0.34279,-0.11824 l 1.06344,0.6864 1.31445,-0.24034 c 0.20994,-0.0384 0.31237,0.0611 0.22895,0.22214 l -0.531,1.02122 0.74964,0.96402 c 0.11604,0.14839 0.0343,0.2678 -0.18086,0.26725 z"
     id="path3852-4"
     style="fill:#999999;stroke-width:0.07617985" />
  <path
     inkscape:connector-curvature="0"
     d="m 155.72253,28.068648 2.51955,-0.42141 1.99995,1.34038 c 0.31726,0.21232 0.61205,0.1157 0.65896,-0.21603 l 0.29478,-2.09284 2.1738,-1.11728 c 0.34727,-0.17853 0.32039,-0.42498 -0.0606,-0.55078 l -2.4128,-0.79599 -0.58966,-2.12333 c -0.0906,-0.32582 -0.39865,-0.39786 -0.68837,-0.16082 l -1.77649,1.45321 -2.52022,-0.0443 c -0.41066,-0.007 -0.55923,0.21204 -0.33147,0.49001 l 1.50081,1.8297 -1.17492,1.98634 c -0.17816,0.30097 0.004,0.49042 0.40668,0.42313 z"
     id="path3846-5-3"
     style="fill:#999999;stroke-width:0.07617985" />
  <path
     inkscape:connector-curvature="0"
     d="m 157.43416,8.305668 1.15244,-0.19275 0.91445,0.61299 c 0.1452,0.0972 0.28,0.0529 0.30138,-0.0989 l 0.13488,-0.95708 0.99415,-0.51096 c 0.15854,-0.0816 0.14612,-0.19446 -0.028,-0.25187 l -1.10342,-0.36393 -0.2696,-0.9711 c -0.0414,-0.14907 -0.18238,-0.18183 -0.31482,-0.0737 l -0.81243,0.66457 -1.15269,-0.0202 c -0.18805,-0.003 -0.25583,0.097 -0.15137,0.2242 l 0.68617,0.83684 -0.53726,0.90833 c -0.0811,0.13747 0.002,0.22441 0.1861,0.19351 z"
     id="path3848-2-8"
     style="fill:#999999;stroke-width:0.07617985" />
  <path
     inkscape:connector-curvature="0"
     d="m 141.77091,24.58667 -1.32104,0.004 -0.91335,-0.77491 c -0.14908,-0.12635 -0.30391,-0.0897 -0.34634,0.0818 l -0.27864,1.12965 -1.34099,0.38213 c -0.20301,0.058 -0.22236,0.18293 -0.0424,0.279 l 1.12556,0.60207 0.12957,1.09854 c 0.0208,0.17428 0.17418,0.22722 0.34287,0.11824 l 1.06336,-0.68639 1.31445,0.24033 c 0.20994,0.0384 0.31245,-0.0611 0.22895,-0.22214 l -0.531,-1.02122 0.74973,-0.96408 c 0.1162,-0.14784 0.0346,-0.26719 -0.1807,-0.26664 z"
     id="path3850-4-6"
     style="fill:#999999;stroke-width:0.07617985" />
</svg>
